<svg xmlns="http://www.w3.org/2000/svg" viewBox="0 0 256 256" role="img" aria-label="EduSaathi icon">
  <defs>
    <linearGradient id="g" x1="0" y1="0" x2="1" y2="1">
      <stop offset="0" stop-color="#147A6A"/>
      <stop offset="1" stop-color="#EF9B22"/>
    </linearGradient>
  </defs>
  <rect x="8" y="8" width="240" height="240" rx="54" fill="url(#g)"/>
  <path d="M128 60c-32 0-58 8-76 20v88c18-12 44-20 76-20s58 8 76 20V80c-18-12-44-20-76-20Z" fill="#fff" opacity="0.95"/>
  <path d="M128 96c-24 0-44 6-58 14v52c14-8 34-14 58-14s44 6 58 14v-52c-14-8-34-14-58-14Z" fill="#147A6A"/>
  <circle cx="196" cy="196" r="24" fill="#fff"/>
  <path d="M188 196h16M196 188v16" stroke="#147A6A" stroke-width="6" stroke-linecap="round"/>
</svg>
